<svg fill="none" height="738" viewBox="0 0 330 738" width="330" xmlns="http://www.w3.org/2000/svg"> <g opacity="0.8"> <mask fill="black" height="738" id="path-1-outside-1_8389_25115" maskUnits="userSpaceOnUse" width="330" x="0" y="-0.900391"> <rect fill="white" height="738" width="330" y="-0.900391"/> <path d="M42.4 21.1996C40.2 17.5996 39.1 13.3996 39.1 8.59961C39.1 7.29961 39.2 5.89961 39.5 4.49961C39.7 2.99961 40 1.89961 40.3 1.09961L60 1.29961C59.8 2.59961 59.6 3.99961 59.5 5.49961C59.4 6.99961 59.3 8.39961 59.3 9.89961C59.3 13.4996 59.8 16.6996 60.9 19.4996C61.9 22.2996 63.4 24.5996 65.3 26.3996C66.9 27.9996 68.9 29.1996 71.1 30.1996H136V51.3996H40.9V31.1996L52.1 30.5996C51.9 30.4996 51.7 30.3996 51.5 30.1996C47.6 27.7996 44.6 24.7996 42.4 21.1996ZM292 72.1996H224.2C223 71.5996 221.8 70.8996 220.8 70.0996C218.2 68.1996 216.1 65.7996 214.6 62.8996C213.1 59.9996 212.3 56.5996 212.3 52.7996C212.3 49.1996 212.9 46.0996 214.1 43.5996C215.3 41.0996 217.2 39.1996 219.9 37.8996C222.6 36.5996 226.2 35.8996 230.8 35.8996H292V14.5996H230.9C224.4 14.5996 218.9 15.2996 214.4 16.7996C209.8 18.1996 206.1 20.2996 203.3 22.9996C200.4 25.7996 198.3 28.9996 197.1 32.7996C195.8 36.5996 195.2 40.7996 195.2 45.4996C195.2 51.0996 196.3 56.0996 198.6 60.6996C200.8 65.1996 203.9 68.9996 207.9 72.1996H157V93.2996H292V72.1996ZM116.8 126.4C115.4 127.8 113.5 128.9 111.3 129.7C109 130.5 106.1 130.9 102.6 130.9H40.9V152.1H102.3C108.6 152.1 114 151.3 118.5 149.8C123 148.3 126.7 146.1 129.5 143.4C132.3 140.6 134.4 137.2 135.7 133.4C137 129.5 137.7 125.3 137.7 120.7C137.7 114.3 136.6 108.8 134.4 104.3C132.4 100.1 129.6 96.6996 126.2 93.7996L135.9 93.2996V73.2996H40.9V94.5996H109.1C112.4 96.0996 115 98.3996 117.1 101.4C119.4 104.9 120.6 109.6 120.6 115.6C120.6 117.7 120.3 119.7 119.7 121.6C119.2 123.3 118.2 125 116.8 126.4ZM292 550V541.9V536.5L196.9 510.8V531.5L263.6 546.6L196.9 566.4V568.7V580.2V582.2L263.1 601.8L196.9 617V637.7L292 612V606.6V598.5V594.5L225.8 574.4L292 554V550ZM275.6 108.8C275.8 109.6 276 110.7 276.1 112.1C276.3 113.4 276.4 114.9 276.4 116.3C276.4 118.4 276.1 120.1 275.6 121.7C275.1 123.2 274 124.4 272.5 125.3C270.9 126.1 268.7 126.5 265.7 126.5H212.4V109.5H196.9V126.5H173.6V147.7H196.9V163.2H212.4V147.7H267C273.5 147.7 278.7 146.6 282.6 144.5C286.5 142.4 289.4 139.5 291.1 135.7C292.8 131.9 293.6 127.6 293.6 122.8C293.6 119.8 293.4 117.2 293 114.9C292.6 112.6 292.1 110.5 291.6 108.7L275.6 108.8ZM291.4 208.3C289.8 204.5 287.8 201.2 285.3 198.5C284.4 197.5 283.5 196.6 282.6 195.8C282.8 195.8 283.1 195.7 283.3 195.7C286.8 195.1 289.7 194.3 292 193.3V171.6H290.6C288.1 172.8 285.1 173.7 281.7 174.3C278.2 174.9 274.3 175.2 270 175.2H227.7C220.4 175.2 214.4 176.8 209.6 180C204.7 183.2 201.1 187.5 198.7 193.1C196.3 198.6 195.1 204.9 195.1 212.1C195.1 218.1 195.9 223.5 197.5 228.3C199.1 233.1 201.3 237.2 204 240.7C206.8 244.2 209.9 246.8 213.4 248.6C216.9 250.4 220.5 251.3 224.3 251.3V230.2C221.8 230.2 219.5 229.5 217.5 228.1C215.5 226.7 213.9 224.7 212.8 222.2C211.6 219.7 211 216.7 211 213.2C211 209.4 211.7 206.3 213 203.9C214.3 201.4 216.3 199.5 218.7 198.3C221.2 197.1 224.1 196.5 227.5 196.5H234.1V210C234.1 216.9 234.8 223.1 236.2 228.5C237.5 233.9 239.5 238.5 242.2 242.2C244.8 245.9 248.1 248.7 252 250.6C255.9 252.5 260.3 253.4 265.4 253.4C270.8 253.4 275.6 252 279.9 249.3C284.1 246.5 287.5 242.7 290 237.9C292.5 233 293.7 227.5 293.7 221.3C293.8 216.4 293 212 291.4 208.3ZM275.2 225.4C274 227.6 272.4 229.3 270.4 230.5C268.3 231.7 266 232.3 263.5 232.3C261 232.3 258.7 231.8 256.7 230.8C254.7 229.8 253 228.3 251.6 226.3C250.2 224.3 249.1 221.8 248.4 218.8C247.6 215.8 247.3 212.4 247.3 208.4V196.4H265.2C266.1 196.8 266.9 197.4 267.8 198C270.4 199.9 272.6 202.5 274.4 205.7C276.2 208.9 277 212.7 277 217C277 220.4 276.4 223.1 275.2 225.4ZM219.7 441.1C222.3 439.8 225.9 439.1 230.5 439.1H292V417.8H230.6C224.1 417.8 218.6 418.5 214.2 419.9C209.7 421.3 206 423.4 203.2 426.1C200.4 428.7 198.4 431.9 197.1 435.7C195.8 439.4 195.2 443.5 195.2 448.1C195.2 453.8 196.3 458.9 198.5 463.6C200.7 468.2 203.8 472.2 207.8 475.6C208 475.8 208.2 475.9 208.4 476L196.9 476.7V496.7H292V475.5H224.5C223.2 474.8 221.9 474.1 220.8 473.2C218.2 471.2 216.1 468.8 214.6 465.9C213.1 463 212.3 459.8 212.3 456.1C212.3 452.4 212.9 449.3 214.1 446.9C215.1 444.3 217 442.4 219.7 441.1ZM58.1 510.6C53.6 512 49.9 514.1 47.1 516.8C44.3 519.4 42.3 522.6 41 526.4C39.7 530.1 39.1 534.2 39.1 538.8C39.1 544.5 40.2 549.6 42.4 554.3C44.6 558.9 47.7 562.9 51.7 566.3C51.9 566.5 52.1 566.6 52.3 566.7L40.8 567.4V587.4H136V566.2H68.5C67.2 565.5 65.9 564.8 64.8 563.9C62.2 561.9 60.1 559.5 58.6 556.6C57.1 553.7 56.3 550.5 56.3 546.8C56.3 543.1 56.9 540 58.1 537.6C59.2 535.1 61.1 533.2 63.8 531.9C66.4 530.6 70 529.9 74.6 529.9H136V508.6H74.6C68.1 508.5 62.6 509.2 58.1 510.6ZM290.2 673.3C287.7 667.9 284.3 663.2 280 659.4C275.6 655.6 270.5 652.7 264.6 650.7C258.7 648.7 252.4 647.7 245.5 647.7H243.5C236.6 647.7 230.3 648.7 224.4 650.7C218.5 652.7 213.4 655.6 209 659.4C204.6 663.2 201.2 667.9 198.8 673.4C196.3 678.8 195.1 685.1 195.1 692C195.1 698.9 196.3 705.1 198.8 710.6C201.2 716 204.6 720.7 209 724.5C213.3 728.3 218.5 731.1 224.4 733.1C230.3 735.1 236.6 736.1 243.5 736.1H245.5C252.4 736.1 258.7 735.1 264.6 733.1C270.5 731.1 275.6 728.2 280 724.4C284.3 720.6 287.7 716 290.2 710.5C292.6 705 293.8 698.8 293.8 691.8C293.8 684.9 292.6 678.8 290.2 673.3ZM274.4 702.3C272.8 705.2 270.5 707.6 267.6 709.5C264.7 711.4 261.4 712.8 257.6 713.6C253.8 714.5 249.7 714.9 245.5 714.9H243.5C239.3 714.9 235.3 714.5 231.5 713.6C227.7 712.7 224.3 711.3 221.4 709.5C218.5 707.7 216.2 705.3 214.5 702.4C212.8 699.5 212 696 212 692C212 688 212.8 684.6 214.5 681.7C216.1 678.8 218.4 676.4 221.4 674.5C224.3 672.6 227.7 671.2 231.5 670.3C235.3 669.4 239.2 668.9 243.5 668.9H245.5C249.8 668.9 253.8 669.4 257.6 670.3C261.4 671.2 264.7 672.6 267.6 674.4C270.5 676.3 272.7 678.7 274.4 681.6C276 684.5 276.9 687.9 276.9 691.8C276.9 695.9 276.1 699.4 274.4 702.3ZM166 311.6C163.5 309.3 160.9 307.5 158.2 306.1C155.4 304.7 152.9 303.6 150.6 302.7L40.9 264.5V287.2L105.9 307L40.9 327.6V350.5L135.8 316.8L144.1 319.9C147.3 321 149.8 322.2 151.7 323.8C153.6 325.3 154.9 327.2 155.7 329.5C156.6 331.8 157 334.8 157 338.3C157 338.8 157 339.5 156.9 340.4C156.8 341.2 156.8 341.9 156.7 342.5L172.9 342.4C173.3 340.9 173.6 339.3 173.9 337.6C174.3 335.8 174.4 334 174.4 332.1C174.4 327.4 173.6 323.3 172 320C170.5 316.6 168.5 313.9 166 311.6ZM134.4 438.4C132.3 434.3 129.5 430.8 125.8 427.9L136 426.9V407.7H1V429H50C46.8 431.7 44.3 434.8 42.5 438.4C40.3 442.7 39.2 447.8 39.2 453.5C39.2 459.3 40.4 464.5 42.7 469.1C45 473.7 48.3 477.7 52.6 480.9C56.9 484.1 62 486.6 68 488.3C73.9 490 80.5 490.8 87.7 490.8H89.5C96.4 490.8 102.8 490 108.7 488.3C114.6 486.6 119.7 484.1 124 480.9C128.3 477.7 131.7 473.8 134.1 469.2C136.5 464.6 137.7 459.4 137.7 453.6C137.8 447.8 136.6 442.7 134.4 438.4ZM118.2 458.1C116.6 460.8 114.3 463 111.5 464.7C108.6 466.4 105.3 467.7 101.6 468.5C97.8 469.3 93.8 469.6 89.5 469.6H87.7C83.4 469.6 79.3 469.2 75.5 468.4C71.7 467.6 68.4 466.3 65.5 464.6C62.6 462.8 60.4 460.6 58.7 457.9C57.1 455.2 56.2 451.9 56.2 448.1C56.2 444.5 56.8 441.3 58.1 438.7C59.3 436 61.1 433.7 63.4 431.9C64.8 430.7 66.4 429.8 68.1 428.9H108.5C108.6 429 108.8 429 108.9 429.1C112.5 430.9 115.3 433.3 117.4 436.4C119.5 439.5 120.6 443.5 120.6 448.3C120.6 452 119.8 455.3 118.2 458.1ZM40.9 631.6H136V610.3H40.9V631.6ZM283.1 330.1C286.2 327.4 288.6 324.2 290.5 320.6C292.7 316.1 293.8 311 293.8 305C293.8 299 292.6 293.8 290.2 289.2C287.8 284.6 284.4 280.8 280.1 277.7C275.7 274.5 270.6 272.2 264.7 270.6C258.8 269 252.4 268.1 245.5 268.1H243.7C236.4 268.1 229.8 268.9 223.9 270.5C217.9 272.1 212.8 274.5 208.6 277.6C204.3 280.8 201 284.7 198.8 289.3C196.5 293.9 195.3 299.2 195.3 305.2C195.3 311.1 196.4 316.2 198.6 320.6C200.6 324.6 203.4 328 206.9 330.9L197 331.8V351.3H328.7V330.1H283.1ZM273.8 322.9C271.7 326 268.9 328.4 265.4 330.1H223.6C222.1 329.3 220.6 328.4 219.3 327.4C217.1 325.6 215.3 323.3 214.1 320.6C212.8 317.9 212.2 314.7 212.2 310.9C212.2 307.1 213 303.8 214.7 301.1C216.3 298.3 218.5 296.1 221.4 294.3C224.3 292.5 227.6 291.3 231.4 290.4C235.2 289.6 239.2 289.2 243.6 289.2H245.4C249.7 289.2 253.7 289.6 257.5 290.4C261.3 291.2 264.7 292.5 267.6 294.3C270.5 296 272.7 298.2 274.4 300.9C276 303.6 276.9 306.8 276.9 310.7C276.9 315.7 275.9 319.7 273.8 322.9ZM81.5 655.7H64V707.9H25.6V648.4H8V707.9V713.5V730H136V707.9H81.5V655.7ZM134.2 195C131.7 189.6 128.3 184.9 124 181.1C119.6 177.3 114.5 174.4 108.6 172.4C102.7 170.4 96.4 169.4 89.5 169.4H87.5C80.6 169.4 74.3 170.4 68.4 172.4C62.5 174.4 57.4 177.3 53 181.1C48.6 184.9 45.2 189.6 42.8 195.1C40.3 200.5 39.1 206.8 39.1 213.7C39.1 220.6 40.3 226.8 42.8 232.3C45.2 237.8 48.6 242.4 53 246.2C57.3 250 62.5 252.8 68.4 254.8C74.3 256.8 80.6 257.8 87.5 257.8H89.5C96.4 257.8 102.7 256.8 108.6 254.8C114.5 252.8 119.6 249.9 124 246.1C128.3 242.3 131.7 237.7 134.2 232.2C136.6 226.7 137.8 220.5 137.8 213.5C137.8 206.6 136.6 200.5 134.2 195ZM118.4 224C116.8 226.9 114.5 229.3 111.6 231.2C108.7 233.1 105.4 234.5 101.6 235.3C97.8 236.2 93.7 236.6 89.5 236.6H87.5C83.3 236.6 79.3 236.2 75.5 235.3C71.7 234.4 68.3 233 65.4 231.2C62.5 229.3 60.2 227 58.5 224.1C56.8 221.2 56 217.7 56 213.7C56 209.7 56.8 206.3 58.5 203.4C60.1 200.5 62.4 198.1 65.4 196.2C68.3 194.3 71.7 192.9 75.5 192C79.3 191.1 83.2 190.6 87.5 190.6H89.5C93.8 190.6 97.8 191.1 101.6 192C105.4 192.9 108.7 194.3 111.6 196.1C114.5 198 116.7 200.4 118.4 203.3C120 206.2 120.9 209.6 120.9 213.5C120.9 217.6 120.1 221.1 118.4 224ZM23.9 629.8C26 627.6 27.1 624.6 27.1 620.8C27.1 617 26 614.1 23.9 611.9C21.8 609.7 19.2 608.6 16 608.6C12.8 608.6 10.1 609.7 8 611.9C5.8 614.1 4.7 617 4.7 620.8C4.7 624.6 5.8 627.6 8 629.8C10.1 631.9 12.8 633 16 633C19.1 633 21.7 631.9 23.9 629.8Z"/> </mask> <path class="path-text"  d="M42.4 21.1996C40.2 17.5996 39.1 13.3996 39.1 8.59961C39.1 7.29961 39.2 5.89961 39.5 4.49961C39.7 2.99961 40 1.89961 40.3 1.09961L60 1.29961C59.8 2.59961 59.6 3.99961 59.5 5.49961C59.4 6.99961 59.3 8.39961 59.3 9.89961C59.3 13.4996 59.8 16.6996 60.9 19.4996C61.9 22.2996 63.4 24.5996 65.3 26.3996C66.9 27.9996 68.9 29.1996 71.1 30.1996H136V51.3996H40.9V31.1996L52.1 30.5996C51.9 30.4996 51.7 30.3996 51.5 30.1996C47.6 27.7996 44.6 24.7996 42.4 21.1996ZM292 72.1996H224.2C223 71.5996 221.8 70.8996 220.8 70.0996C218.2 68.1996 216.1 65.7996 214.6 62.8996C213.1 59.9996 212.3 56.5996 212.3 52.7996C212.3 49.1996 212.9 46.0996 214.1 43.5996C215.3 41.0996 217.2 39.1996 219.9 37.8996C222.6 36.5996 226.2 35.8996 230.8 35.8996H292V14.5996H230.9C224.4 14.5996 218.9 15.2996 214.4 16.7996C209.8 18.1996 206.1 20.2996 203.3 22.9996C200.4 25.7996 198.3 28.9996 197.1 32.7996C195.8 36.5996 195.2 40.7996 195.2 45.4996C195.2 51.0996 196.3 56.0996 198.6 60.6996C200.8 65.1996 203.9 68.9996 207.9 72.1996H157V93.2996H292V72.1996ZM116.8 126.4C115.4 127.8 113.5 128.9 111.3 129.7C109 130.5 106.1 130.9 102.6 130.9H40.9V152.1H102.3C108.6 152.1 114 151.3 118.5 149.8C123 148.3 126.7 146.1 129.5 143.4C132.3 140.6 134.4 137.2 135.7 133.4C137 129.5 137.7 125.3 137.7 120.7C137.7 114.3 136.6 108.8 134.4 104.3C132.4 100.1 129.6 96.6996 126.2 93.7996L135.9 93.2996V73.2996H40.9V94.5996H109.1C112.4 96.0996 115 98.3996 117.1 101.4C119.4 104.9 120.6 109.6 120.6 115.6C120.6 117.7 120.3 119.7 119.7 121.6C119.2 123.3 118.2 125 116.8 126.4ZM292 550V541.9V536.5L196.9 510.8V531.5L263.6 546.6L196.9 566.4V568.7V580.2V582.2L263.1 601.8L196.9 617V637.7L292 612V606.6V598.5V594.5L225.8 574.4L292 554V550ZM275.6 108.8C275.8 109.6 276 110.7 276.1 112.1C276.3 113.4 276.4 114.9 276.4 116.3C276.4 118.4 276.1 120.1 275.6 121.7C275.1 123.2 274 124.4 272.5 125.3C270.9 126.1 268.7 126.5 265.7 126.5H212.4V109.5H196.9V126.5H173.6V147.7H196.9V163.2H212.4V147.7H267C273.5 147.7 278.7 146.6 282.6 144.5C286.5 142.4 289.4 139.5 291.1 135.7C292.8 131.9 293.6 127.6 293.6 122.8C293.6 119.8 293.4 117.2 293 114.9C292.6 112.6 292.1 110.5 291.6 108.7L275.6 108.8ZM291.4 208.3C289.8 204.5 287.8 201.2 285.3 198.5C284.4 197.5 283.5 196.6 282.6 195.8C282.8 195.8 283.1 195.7 283.3 195.7C286.8 195.1 289.7 194.3 292 193.3V171.6H290.6C288.1 172.8 285.1 173.7 281.7 174.3C278.2 174.9 274.3 175.2 270 175.2H227.7C220.4 175.2 214.4 176.8 209.6 180C204.7 183.2 201.1 187.5 198.7 193.1C196.3 198.6 195.1 204.9 195.1 212.1C195.1 218.1 195.9 223.5 197.5 228.3C199.1 233.1 201.3 237.2 204 240.7C206.8 244.2 209.9 246.8 213.4 248.6C216.9 250.4 220.5 251.3 224.3 251.3V230.2C221.8 230.2 219.5 229.5 217.5 228.1C215.5 226.7 213.9 224.7 212.8 222.2C211.6 219.7 211 216.7 211 213.2C211 209.4 211.7 206.3 213 203.9C214.3 201.4 216.3 199.5 218.7 198.3C221.2 197.1 224.1 196.5 227.5 196.5H234.1V210C234.1 216.9 234.8 223.1 236.2 228.5C237.5 233.9 239.5 238.5 242.2 242.2C244.8 245.9 248.1 248.7 252 250.6C255.9 252.5 260.3 253.4 265.4 253.4C270.8 253.4 275.6 252 279.9 249.3C284.1 246.5 287.5 242.7 290 237.9C292.5 233 293.7 227.5 293.7 221.3C293.8 216.4 293 212 291.4 208.3ZM275.2 225.4C274 227.6 272.4 229.3 270.4 230.5C268.3 231.7 266 232.3 263.5 232.3C261 232.3 258.7 231.8 256.7 230.8C254.7 229.8 253 228.3 251.6 226.3C250.2 224.3 249.1 221.8 248.4 218.8C247.6 215.8 247.3 212.4 247.3 208.4V196.4H265.2C266.1 196.8 266.9 197.4 267.8 198C270.4 199.9 272.6 202.5 274.4 205.7C276.2 208.9 277 212.7 277 217C277 220.4 276.4 223.1 275.2 225.4ZM219.7 441.1C222.3 439.8 225.9 439.1 230.5 439.1H292V417.8H230.6C224.1 417.8 218.6 418.5 214.2 419.9C209.7 421.3 206 423.4 203.2 426.1C200.4 428.7 198.4 431.9 197.1 435.7C195.8 439.4 195.2 443.5 195.2 448.1C195.2 453.8 196.3 458.9 198.5 463.6C200.7 468.2 203.8 472.2 207.8 475.6C208 475.8 208.2 475.9 208.4 476L196.9 476.7V496.7H292V475.5H224.5C223.2 474.8 221.9 474.1 220.8 473.2C218.2 471.2 216.1 468.8 214.6 465.9C213.1 463 212.3 459.8 212.3 456.1C212.3 452.4 212.9 449.3 214.1 446.9C215.1 444.3 217 442.4 219.7 441.1ZM58.1 510.6C53.6 512 49.9 514.1 47.1 516.8C44.3 519.4 42.3 522.6 41 526.4C39.7 530.1 39.1 534.2 39.1 538.8C39.1 544.5 40.2 549.6 42.4 554.3C44.6 558.9 47.7 562.9 51.7 566.3C51.9 566.5 52.1 566.6 52.3 566.7L40.8 567.4V587.4H136V566.2H68.5C67.2 565.5 65.9 564.8 64.8 563.9C62.2 561.9 60.1 559.5 58.6 556.6C57.1 553.7 56.3 550.5 56.3 546.8C56.3 543.1 56.9 540 58.1 537.6C59.2 535.1 61.1 533.2 63.8 531.9C66.4 530.6 70 529.9 74.6 529.9H136V508.6H74.6C68.1 508.5 62.6 509.2 58.1 510.6ZM290.2 673.3C287.7 667.9 284.3 663.2 280 659.4C275.6 655.6 270.5 652.7 264.6 650.7C258.7 648.7 252.4 647.7 245.5 647.7H243.5C236.6 647.7 230.3 648.7 224.4 650.7C218.5 652.7 213.4 655.6 209 659.4C204.6 663.2 201.2 667.9 198.8 673.4C196.3 678.8 195.1 685.1 195.1 692C195.1 698.9 196.3 705.1 198.8 710.6C201.2 716 204.6 720.7 209 724.5C213.3 728.3 218.5 731.1 224.4 733.1C230.3 735.1 236.6 736.1 243.5 736.1H245.5C252.4 736.1 258.7 735.1 264.6 733.1C270.5 731.1 275.6 728.2 280 724.4C284.3 720.6 287.7 716 290.2 710.5C292.6 705 293.8 698.8 293.8 691.8C293.8 684.9 292.6 678.8 290.2 673.3ZM274.4 702.3C272.8 705.2 270.5 707.6 267.6 709.5C264.7 711.4 261.4 712.8 257.6 713.6C253.8 714.5 249.7 714.9 245.5 714.9H243.5C239.3 714.9 235.3 714.5 231.5 713.6C227.7 712.7 224.3 711.3 221.4 709.5C218.5 707.7 216.2 705.3 214.5 702.4C212.8 699.5 212 696 212 692C212 688 212.8 684.6 214.5 681.7C216.1 678.8 218.4 676.4 221.4 674.5C224.3 672.6 227.7 671.2 231.5 670.3C235.3 669.4 239.2 668.9 243.5 668.9H245.5C249.8 668.9 253.8 669.4 257.6 670.3C261.4 671.2 264.7 672.6 267.6 674.4C270.5 676.3 272.7 678.7 274.4 681.6C276 684.5 276.9 687.9 276.9 691.8C276.9 695.9 276.1 699.4 274.4 702.3ZM166 311.6C163.5 309.3 160.9 307.5 158.2 306.1C155.4 304.7 152.9 303.6 150.6 302.7L40.9 264.5V287.2L105.9 307L40.9 327.6V350.5L135.8 316.8L144.1 319.9C147.3 321 149.8 322.2 151.7 323.8C153.6 325.3 154.9 327.2 155.7 329.5C156.6 331.8 157 334.8 157 338.3C157 338.8 157 339.5 156.9 340.4C156.8 341.2 156.8 341.9 156.7 342.5L172.9 342.4C173.3 340.9 173.6 339.3 173.9 337.6C174.3 335.8 174.4 334 174.4 332.1C174.4 327.4 173.6 323.3 172 320C170.5 316.6 168.5 313.9 166 311.6ZM134.4 438.4C132.3 434.3 129.5 430.8 125.8 427.9L136 426.9V407.7H1V429H50C46.8 431.7 44.3 434.8 42.5 438.4C40.3 442.7 39.2 447.8 39.2 453.5C39.2 459.3 40.4 464.5 42.7 469.1C45 473.7 48.3 477.7 52.6 480.9C56.9 484.1 62 486.6 68 488.3C73.9 490 80.5 490.8 87.7 490.8H89.5C96.4 490.8 102.8 490 108.7 488.3C114.6 486.6 119.7 484.1 124 480.9C128.3 477.7 131.7 473.8 134.1 469.2C136.5 464.6 137.7 459.4 137.7 453.6C137.8 447.8 136.6 442.7 134.4 438.4ZM118.2 458.1C116.6 460.8 114.3 463 111.5 464.7C108.6 466.4 105.3 467.7 101.6 468.5C97.8 469.3 93.8 469.6 89.5 469.6H87.7C83.4 469.6 79.3 469.2 75.5 468.4C71.7 467.6 68.4 466.3 65.5 464.6C62.6 462.8 60.4 460.6 58.7 457.9C57.1 455.2 56.2 451.9 56.2 448.1C56.2 444.5 56.8 441.3 58.1 438.7C59.3 436 61.1 433.7 63.4 431.9C64.8 430.7 66.4 429.8 68.1 428.9H108.5C108.6 429 108.8 429 108.9 429.1C112.5 430.9 115.3 433.3 117.4 436.4C119.5 439.5 120.6 443.5 120.6 448.3C120.6 452 119.8 455.3 118.2 458.1ZM40.9 631.6H136V610.3H40.9V631.6ZM283.1 330.1C286.2 327.4 288.6 324.2 290.5 320.6C292.7 316.1 293.8 311 293.8 305C293.8 299 292.6 293.8 290.2 289.2C287.8 284.6 284.4 280.8 280.1 277.7C275.7 274.5 270.6 272.2 264.7 270.6C258.8 269 252.4 268.1 245.5 268.1H243.7C236.4 268.1 229.8 268.9 223.9 270.5C217.9 272.1 212.8 274.5 208.6 277.6C204.3 280.8 201 284.7 198.8 289.3C196.5 293.9 195.3 299.2 195.3 305.2C195.3 311.1 196.4 316.2 198.6 320.6C200.6 324.6 203.4 328 206.9 330.9L197 331.8V351.3H328.7V330.1H283.1ZM273.8 322.9C271.7 326 268.9 328.4 265.4 330.1H223.6C222.1 329.3 220.6 328.4 219.3 327.4C217.1 325.6 215.3 323.3 214.1 320.6C212.8 317.9 212.2 314.7 212.2 310.9C212.2 307.1 213 303.8 214.7 301.1C216.3 298.3 218.5 296.1 221.4 294.3C224.3 292.5 227.6 291.3 231.4 290.4C235.2 289.6 239.2 289.2 243.6 289.2H245.4C249.7 289.2 253.7 289.6 257.5 290.4C261.3 291.2 264.7 292.5 267.6 294.3C270.5 296 272.7 298.2 274.4 300.9C276 303.6 276.9 306.8 276.9 310.7C276.9 315.7 275.9 319.7 273.8 322.9ZM81.5 655.7H64V707.9H25.6V648.4H8V707.9V713.5V730H136V707.9H81.5V655.7ZM134.2 195C131.7 189.6 128.3 184.9 124 181.1C119.6 177.3 114.5 174.4 108.6 172.4C102.7 170.4 96.4 169.4 89.5 169.4H87.5C80.6 169.4 74.3 170.4 68.4 172.4C62.5 174.4 57.4 177.3 53 181.1C48.6 184.9 45.2 189.6 42.8 195.1C40.3 200.5 39.1 206.8 39.1 213.7C39.1 220.6 40.3 226.8 42.8 232.3C45.2 237.8 48.6 242.4 53 246.2C57.3 250 62.5 252.8 68.4 254.8C74.3 256.8 80.6 257.8 87.5 257.8H89.5C96.4 257.8 102.7 256.8 108.6 254.8C114.5 252.8 119.6 249.9 124 246.1C128.3 242.3 131.7 237.7 134.2 232.2C136.6 226.7 137.8 220.5 137.8 213.5C137.8 206.6 136.6 200.5 134.2 195ZM118.4 224C116.8 226.9 114.5 229.3 111.6 231.2C108.7 233.1 105.4 234.5 101.6 235.3C97.8 236.2 93.7 236.6 89.5 236.6H87.5C83.3 236.6 79.3 236.2 75.5 235.3C71.7 234.4 68.3 233 65.4 231.2C62.5 229.3 60.2 227 58.5 224.1C56.8 221.2 56 217.7 56 213.7C56 209.7 56.8 206.3 58.5 203.4C60.1 200.5 62.4 198.1 65.4 196.2C68.3 194.3 71.7 192.9 75.5 192C79.3 191.1 83.2 190.6 87.5 190.6H89.5C93.8 190.6 97.8 191.1 101.6 192C105.4 192.9 108.7 194.3 111.6 196.1C114.5 198 116.7 200.4 118.4 203.3C120 206.2 120.9 209.6 120.9 213.5C120.9 217.6 120.1 221.1 118.4 224ZM23.9 629.8C26 627.6 27.1 624.6 27.1 620.8C27.1 617 26 614.1 23.9 611.9C21.8 609.7 19.2 608.6 16 608.6C12.8 608.6 10.1 609.7 8 611.9C5.8 614.1 4.7 617 4.7 620.8C4.7 624.6 5.8 627.6 8 629.8C10.1 631.9 12.8 633 16 633C19.1 633 21.7 631.9 23.9 629.8Z" mask="url(#path-1-outside-1_8389_25115)" stroke="url(#paint0_linear_8389_25115)" stroke-width="2"/> </g> <defs> <linearGradient gradientUnits="userSpaceOnUse" id="paint0_linear_8389_25115" x1="165" x2="157.5" y1="1" y2="714"> <stop offset="0.0321953" stop-color="#1DB4CC" stop-opacity="0"/> <stop offset="0.511615" stop-color="#7E3A77"/> <stop offset="1" stop-color="#008FBF"/> </linearGradient> </defs> <style> .path-text {stroke-dasharray: 1897 1899; stroke-dashoffset: 1898; animation: path-animate 6000ms ease-out 0ms infinite; } @keyframes path-animate {100% {stroke-dashoffset: 0; } } </style> </svg>