<svg xmlns="http://www.w3.org/2000/svg" xmlns:xlink="http://www.w3.org/1999/xlink" width="132" height="132" viewBox="0 0 132 132">
  <defs>
    <linearGradient id="linear-gradient" x1="0.04" y1="0.033" x2="0.949" y2="0.971" gradientUnits="objectBoundingBox">
      <stop offset="0" stop-color="#661eff"/>
      <stop offset="1" stop-color="#9857ff"/>
    </linearGradient>
    <filter id="Rectangle_40" x="0" y="0" width="132" height="132" filterUnits="userSpaceOnUse">
      <feOffset dy="10" input="SourceAlpha"/>
      <feGaussianBlur stdDeviation="10" result="blur"/>
      <feFlood flood-color="#6821ff" flood-opacity="0.271"/>
      <feComposite operator="in" in2="blur"/>
      <feComposite in="SourceGraphic"/>
    </filter>
    <clipPath id="clip-path">
      <rect id="Rectangle_114" data-name="Rectangle 114" width="33" height="33" fill="#d6c1ff"/>
    </clipPath>
  </defs>
  <g id="Group_261" data-name="Group 261" transform="translate(-1322 -3499)">
    <g transform="matrix(1, 0, 0, 1, 1322, 3499)" filter="url(#Rectangle_40)">
      <rect id="Rectangle_40-2" data-name="Rectangle 40" width="72" height="72" rx="14" transform="translate(30 20)" fill="url(#linear-gradient)"/>
    </g>
    <g id="Group_78" data-name="Group 78" transform="translate(1372 3539)">
      <g id="Group_77" data-name="Group 77" clip-path="url(#clip-path)">
        <path id="Path_200" data-name="Path 200" d="M27.889,16.045H27.9a.639.639,0,0,0,.448-.191l2.33-2.33a.635.635,0,0,0,.142-.7.649.649,0,0,0-.562-.386h-.079a.605.605,0,0,0-.4.192l-2.32,2.323-.01.01a.645.645,0,0,0-.195.448.632.632,0,0,0,.631.637Z" fill="#d6c1ff"/>
        <path id="Path_201" data-name="Path 201" d="M16.579,5.1a.626.626,0,0,0,.445.185A.636.636,0,0,0,17.47,5.1l2.317-2.316.016-.013a.634.634,0,0,0-.442-1.086h-.017a.629.629,0,0,0-.435.188L16.572,4.208a.633.633,0,0,0,0,.891Z" fill="#d6c1ff"/>
        <path id="Path_202" data-name="Path 202" d="M25.116,15.79a.64.64,0,0,0-.445-.184h-.013a.631.631,0,0,0-.439.184l-3.8,3.8a.324.324,0,0,0-.036.037l-4.234,4.233a5.625,5.625,0,0,1-3.94,1.677h-.06a5.431,5.431,0,0,1-5.428-5.488A5.637,5.637,0,0,1,8.4,16.114l4.2-4.2s.02-.02.033-.03l3.842-3.841a.631.631,0,0,0,.184-.446.644.644,0,0,0-.184-.449L12.632,3.3a.639.639,0,0,0-.373-.181V3.115h-.082a.63.63,0,0,0-.436.185L3.574,11.467a12.176,12.176,0,1,0,17.219,17.22l8.164-8.161a.63.63,0,0,0,0-.894ZM9.24,7.593l2.947-2.947,2.947,2.947L12.187,10.54ZM27.621,20.077l-2.947,2.947-2.947-2.947,2.947-2.947Z" fill="#d6c1ff"/>
        <path id="Path_203" data-name="Path 203" d="M15.3,3.61h.007a.641.641,0,0,0,.448-.191l2.333-2.334a.634.634,0,1,0-.9-.9L14.867,2.511l-.007.007A.63.63,0,0,0,15.3,3.6Z" fill="#d6c1ff"/>
        <path id="Path_204" data-name="Path 204" d="M32.538,14.544a.614.614,0,0,0-.419-.363l.026-.026-.241.006a.632.632,0,0,0-.4.188l-2.33,2.333a.626.626,0,0,0-.194.449.63.63,0,0,0,.64.637.623.623,0,0,0,.449-.195l2.316-2.316.017-.017a.625.625,0,0,0,.138-.7Z" fill="#d6c1ff"/>
      </g>
    </g>
  </g>
</svg>
