<svg xmlns="http://www.w3.org/2000/svg" xmlns:xlink="http://www.w3.org/1999/xlink" width="132" height="132" viewBox="0 0 132 132">
  <defs>
    <linearGradient id="linear-gradient" x1="0.04" y1="0.033" x2="0.949" y2="0.971" gradientUnits="objectBoundingBox">
      <stop offset="0" stop-color="#661eff"/>
      <stop offset="1" stop-color="#9857ff"/>
    </linearGradient>
    <filter id="Rectangle_40" x="0" y="0" width="132" height="132" filterUnits="userSpaceOnUse">
      <feOffset dy="10" input="SourceAlpha"/>
      <feGaussianBlur stdDeviation="10" result="blur"/>
      <feFlood flood-color="#6821ff" flood-opacity="0.271"/>
      <feComposite operator="in" in2="blur"/>
      <feComposite in="SourceGraphic"/>
    </filter>
    <clipPath id="clip-path">
      <rect id="Rectangle_115" data-name="Rectangle 115" width="30" height="26.003" transform="translate(0 0)" fill="#d6c1ff"/>
    </clipPath>
  </defs>
  <g id="Group_260" data-name="Group 260" transform="translate(-895 -3499)">
    <g transform="matrix(1, 0, 0, 1, 895, 3499)" filter="url(#Rectangle_40)">
      <rect id="Rectangle_40-2" data-name="Rectangle 40" width="72" height="72" rx="14" transform="translate(30 20)" fill="url(#linear-gradient)"/>
    </g>
    <g id="Group_80" data-name="Group 80" transform="translate(946 3542)">
      <g id="Group_79" data-name="Group 79" clip-path="url(#clip-path)">
        <path id="Path_205" data-name="Path 205" d="M18.432,18.64a1.051,1.051,0,0,0,.318-.763V15.169H30V23.3a2.62,2.62,0,0,1-.787,1.912,2.562,2.562,0,0,1-1.891.8H2.679a2.562,2.562,0,0,1-1.892-.8A2.62,2.62,0,0,1,0,23.3V15.169H11.25v2.708a1.051,1.051,0,0,0,.318.763,1.029,1.029,0,0,0,.754.321h5.357a1.028,1.028,0,0,0,.753-.321m-1.289-3.471H12.857v2.167h4.286ZM29.213,5.13a2.562,2.562,0,0,0-1.891-.8H21.428V1.625A1.578,1.578,0,0,0,20.96.474,1.54,1.54,0,0,0,19.822,0H10.179A1.542,1.542,0,0,0,9.04.474a1.578,1.578,0,0,0-.468,1.151V4.334H2.679a2.562,2.562,0,0,0-1.892.8A2.617,2.617,0,0,0,0,7.042v6.5H30v-6.5a2.617,2.617,0,0,0-.787-1.912m-9.927-.8H10.715V2.167h8.571Z" fill="#d6c1ff" fill-rule="evenodd"/>
      </g>
    </g>
  </g>
</svg>
